<?xml version="1.0" encoding="UTF-8" standalone="no"?>
<!-- Created with Inkscape (http://www.inkscape.org/) -->
<svg version="1.1" id="svg2" xml:space="preserve" width="1889.76" height="1133.8586" viewBox="0 0 1889.76 1133.8586" sodipodi:docname="lhcb-logo-0121.svg" inkscape:version="1.1.2 (1:1.1+202202050950+0a00cf5339)" xmlns:inkscape="http://www.inkscape.org/namespaces/inkscape" xmlns:sodipodi="http://sodipodi.sourceforge.net/DTD/sodipodi-0.dtd" xmlns="http://www.w3.org/2000/svg" xmlns:svg="http://www.w3.org/2000/svg"><defs id="defs6"><clipPath clipPathUnits="userSpaceOnUse" id="clipPath20"><path d="M 0,850.394 H 1417.322 V 0 H 0 Z" id="path18"/></clipPath></defs><sodipodi:namedview id="namedview4" pagecolor="#ffffff" bordercolor="#666666" borderopacity="1.0" inkscape:pageshadow="2" inkscape:pageopacity="0.0" inkscape:pagecheckerboard="0" showgrid="false" inkscape:zoom="0.69056227" inkscape:cx="944.15815" inkscape:cy="566.20527" inkscape:window-width="1920" inkscape:window-height="1056" inkscape:window-x="0" inkscape:window-y="0" inkscape:window-maximized="1" inkscape:current-layer="g8"/><g id="g8" inkscape:groupmode="layer" inkscape:label="lhcb-logo-0121" transform="matrix(1.3333333,0,0,-1.3333333,0,1133.8587)"><path d="M 0,0 H 1417.322 V 425.197 H 0 Z" style="fill:#2154ac;fill-opacity:1;fill-rule:nonzero;stroke:none" id="path10"/><path d="M 0,425.197 H 1417.322 V 850.394 H 0 Z" style="fill:#d6f2fc;fill-opacity:1;fill-rule:nonzero;stroke:none" id="path12"/><g id="g14"><g id="g16" clip-path="url(#clipPath20)"><g id="g22" transform="translate(301.5396,425.1968)"><path d="m 0,0 h -243.118 v 8.149 c 18.904,2.014 28.14,5.034 35.171,24.163 l 54.076,150.686 c 0,0 4.395,14.431 4.395,18.796 0,10.741 -3.955,11.079 -32.088,14.102 v 8.149 h 139.361 v -8.149 c -24.625,-1.01 -37.369,-4.03 -44.408,-24.17 L -143.324,31.288 c -2.189,-6.378 -2.189,-9.061 -2.189,-10.741 0,-3.021 0,-10.072 28.572,-10.072 52.75,0 102,14.102 132.33,56.058 l 10.554,-1.681 z" style="fill:#2154ac;fill-opacity:1;fill-rule:nonzero;stroke:none" id="path24"/></g><g id="g26" transform="translate(628.7134,425.1968)"><path d="m 0,0 h -139.576 v 8.149 c 33.461,1.01 39.182,9.434 44.472,24.257 l 28.172,78.162 h -105.227 l -22.02,-60.98 c -3.084,-8.758 -7.479,-18.529 -7.479,-26.954 0,-12.465 9.244,-13.137 32.136,-14.485 V 0 h -130.333 v 8.149 c 16.299,2.02 27.741,3.372 35.235,24.257 l 53.709,150.658 c 1.327,3.351 4.842,14.408 4.842,18.091 0,11.055 -4.842,11.724 -32.135,14.741 v 8.149 h 139.576 v -8.149 c -24.664,-0.674 -37.433,-4.024 -44.48,-24.122 l -23.77,-66.658 h 105.235 l 20.695,57.948 c 0,0 4.402,14.408 4.402,18.758 0,10.72 -3.963,11.057 -32.143,14.074 v 8.149 H 62.529 v -8.149 C 44.911,213.882 34.341,212.542 26.854,191.774 L -21.141,58.685 C -24.217,49.588 -32.143,30.386 -32.143,22.3 -32.143,9.836 -16.731,8.486 0,8.149 Z" style="fill:#2154ac;fill-opacity:1;fill-rule:nonzero;stroke:none" id="path28"/></g><g id="g30" transform="translate(959.3066,582.5762)"><path d="m 0,0 -13.919,2.013 c 0.887,3.649 1.335,7.627 1.335,11.276 0,32.171 -20.328,52.738 -58.767,52.738 -71.127,0 -122.821,-86.142 -122.821,-145.472 0,-60.006 57.44,-60.006 63.623,-60.006 34.901,0 63.177,8.719 95.424,39.557 l 13.256,-7.373 c -22.532,-25.812 -62.737,-50.112 -120.168,-50.112 -57.4,0 -119.73,25.976 -119.73,86.648 0,74.403 72.9,148.394 180.253,148.394 38,0 62.737,-9.643 73.268,-9.643 9.571,0 13.088,4.321 17.49,9.643 h 13.207 z" style="fill:#2154ac;fill-opacity:1;fill-rule:nonzero;stroke:none" id="path32"/></g><g id="g34" transform="translate(1050.6553,760.3892)"><path d="m 0,0 c 39.152,-0.519 43.881,-3.087 43.881,-14.891 0,-7.188 -6.071,-20.021 -10.802,-34.389 l -91.82,-256.873 v -2.046 c 0,-11.26 51.989,-26.993 87.768,-26.993 103.279,0 215.633,88.405 215.633,169.26 0,37.371 -32.854,62.24 -79.955,62.24 -60.748,0 -103.278,-47.91 -125.553,-74.521 l -1.342,0.512 c 22.945,57.945 53.995,153.24 68.847,195.157 l -3.38,2.56 C 68.179,14.804 33.758,11.218 0,8.146 Z m 187.669,-172.583 c 0,-42.987 -64.136,-150.969 -156.612,-150.969 -31.728,0 -31.728,13.305 -31.728,16.89 0,53.733 64.798,177.582 139.049,177.582 42.531,0 49.291,-27.636 49.291,-43.503" style="fill:#2154ac;fill-opacity:1;fill-rule:nonzero;stroke:none" id="path36"/></g><g id="g38" transform="translate(327.4751,360.3467)"><path d="m 0,0 -10.547,-1.676 c -30.346,41.955 -79.58,56.051 -132.329,56.051 -28.588,0 -28.588,-7.047 -28.588,-10.068 0,-1.678 0,-4.364 2.204,-10.743 l 56.713,-160.437 c 7.032,-20.141 19.783,-23.16 44.408,-24.17 v -8.146 h -139.369 v 8.146 c 28.133,3.023 32.096,3.361 32.096,14.1 0,4.363 -4.394,18.798 -4.394,18.798 l -54.077,150.686 c -7.038,19.129 -16.266,22.15 -35.171,24.164 v 8.145 h 243.118 z" style="fill:#d6f2fc;fill-opacity:1;fill-rule:nonzero;stroke:none" id="path40"/></g><g id="g42" transform="translate(628.7134,417.0479)"><path d="m 0,0 c -16.731,-0.336 -32.143,-1.684 -32.143,-14.15 0,-8.082 7.926,-27.286 11.002,-36.383 l 47.995,-133.092 c 7.487,-20.768 18.057,-22.105 35.675,-24.117 v -8.151 H -68.689 v 8.151 c 28.18,3.015 32.143,3.349 32.143,14.07 0,4.354 -4.402,18.758 -4.402,18.758 l -20.695,57.947 h -105.235 l 23.77,-66.658 c 7.047,-20.098 19.816,-23.447 44.48,-24.117 v -8.151 h -139.576 v 8.151 c 27.293,3.015 32.135,3.683 32.135,14.74 0,3.684 -3.515,14.738 -4.842,18.088 l -53.709,150.66 C -272.114,-3.367 -283.556,-2.021 -299.855,0 v 8.149 h 130.333 V 0 c -22.892,-1.348 -32.136,-2.021 -32.136,-14.484 0,-8.422 4.395,-18.192 7.479,-26.952 l 22.02,-60.982 h 105.227 l -28.172,78.164 C -100.394,-9.432 -106.115,-1.01 -139.576,0 V 8.149 H 0 Z" style="fill:#d6f2fc;fill-opacity:1;fill-rule:nonzero;stroke:none" id="path44"/></g><g id="g46" transform="translate(981.7578,190.1534)"><path d="m 0,0 h -13.207 c -4.402,5.322 -7.919,9.648 -17.49,9.648 C -41.229,9.648 -65.965,0 -103.965,0 c -107.353,0 -180.253,73.994 -180.253,148.395 0,60.675 62.329,86.648 119.73,86.648 57.43,0 97.635,-24.301 120.168,-50.109 l -13.256,-7.373 c -32.247,30.835 -60.524,39.552 -95.424,39.552 -6.184,0 -63.623,0 -63.623,-60 0,-59.334 51.694,-145.472 122.821,-145.472 38.439,0 58.767,20.562 58.767,52.734 0,3.648 -0.448,7.631 -1.335,11.279 l 13.919,2.012 z" style="fill:#d6f2fc;fill-opacity:1;fill-rule:nonzero;stroke:none" id="path48"/></g><g id="g50" transform="translate(1050.6553,81.8624)"><path d="m 0,0 c 33.758,-3.074 68.179,-6.658 103.277,-11.871 l 3.38,2.56 C 91.805,32.602 60.755,127.898 37.81,185.842 l 1.342,0.513 c 22.275,-26.611 64.805,-74.521 125.553,-74.521 47.101,0 79.955,24.871 79.955,62.238 0,80.86 -112.354,169.262 -215.633,169.262 -35.779,0 -87.768,-15.732 -87.768,-26.99 v -2.049 L 33.079,57.426 C 37.81,43.053 43.881,30.221 43.881,23.031 43.881,11.229 39.152,8.66 0,8.145 Z m 138.378,137.225 c -74.251,0 -139.049,123.847 -139.049,177.582 0,3.584 0,16.886 31.728,16.886 92.476,0 156.612,-107.978 156.612,-150.968 0,-15.864 -6.76,-43.5 -49.291,-43.5" style="fill:#d6f2fc;fill-opacity:1;fill-rule:nonzero;stroke:none" id="path52"/></g><g id="g54" transform="translate(1294.0176,423.3936)"><path d="M 0,0 H -50.5 L -598.949,-222.25 -550.5,-222 Z" style="fill:#dc2825;fill-opacity:1;fill-rule:nonzero;stroke:none" id="path56"/></g><g id="g58" transform="translate(1294.0176,423.3936)"><path d="M 0,0 H -50.5 L -598.949,-222.25 -550.5,-222 Z" style="fill:none;stroke:#dc2825;stroke-width:3;stroke-linecap:butt;stroke-linejoin:round;stroke-miterlimit:10;stroke-dasharray:none;stroke-opacity:1" id="path60"/></g></g></g></g></svg>